<svg width="16" height="16" viewBox="0 0 16 16" fill="none"
    xmlns="http://www.w3.org/2000/svg">
    <path fill-rule="evenodd" clip-rule="evenodd" d="M0.999999 7.99999C0.999999 7.86738 1.05268 7.74021 1.14645 7.64644C1.24021 7.55267 1.36739 7.49999 1.5 7.49999H13.293L10.146 4.35399C10.0995 4.3075 10.0626 4.25231 10.0375 4.19157C10.0123 4.13083 9.99937 4.06573 9.99937 3.99999C9.99937 3.93425 10.0123 3.86915 10.0375 3.80841C10.0626 3.74767 10.0995 3.69248 10.146 3.64599C10.1925 3.5995 10.2477 3.56263 10.3084 3.53747C10.3692 3.51231 10.4343 3.49936 10.5 3.49936C10.5657 3.49936 10.6308 3.51231 10.6916 3.53747C10.7523 3.56263 10.8075 3.5995 10.854 3.64599L14.854 7.64599C14.9006 7.69244 14.9375 7.74761 14.9627 7.80836C14.9879 7.8691 15.0009 7.93422 15.0009 7.99999C15.0009 8.06576 14.9879 8.13088 14.9627 8.19162C14.9375 8.25237 14.9006 8.30754 14.854 8.35399L10.854 12.354C10.8075 12.4005 10.7523 12.4374 10.6916 12.4625C10.6308 12.4877 10.5657 12.5006 10.5 12.5006C10.4343 12.5006 10.3692 12.4877 10.3084 12.4625C10.2477 12.4374 10.1925 12.4005 10.146 12.354C10.0995 12.3075 10.0626 12.2523 10.0375 12.1916C10.0123 12.1308 9.99937 12.0657 9.99937 12C9.99937 11.9342 10.0123 11.8691 10.0375 11.8084C10.0626 11.7477 10.0995 11.6925 10.146 11.646L13.293 8.49999H1.5C1.36739 8.49999 1.24021 8.44731 1.14645 8.35354C1.05268 8.25978 0.999999 8.1326 0.999999 7.99999Z" fill="white"/>
</svg>