<svg width="16" height="16" viewBox="0 0 16 16" fill="none"
    xmlns="http://www.w3.org/2000/svg">
    <path fill-rule="evenodd" clip-rule="evenodd" d="M15 7.99999C15 7.86738 14.9473 7.74021 14.8535 7.64644C14.7598 7.55267 14.6326 7.49999 14.5 7.49999H2.70699L5.85399 4.35399C5.90048 4.3075 5.93736 4.25231 5.96252 4.19157C5.98768 4.13083 6.00063 4.06573 6.00063 3.99999C6.00063 3.93425 5.98768 3.86915 5.96252 3.80841C5.93736 3.74767 5.90048 3.69248 5.85399 3.64599C5.80751 3.5995 5.75232 3.56263 5.69158 3.53747C5.63084 3.51231 5.56574 3.49936 5.49999 3.49936C5.43425 3.49936 5.36915 3.51231 5.30841 3.53747C5.24767 3.56263 5.19248 3.5995 5.14599 3.64599L1.14599 7.64599C1.09943 7.69244 1.06249 7.74761 1.03728 7.80836C1.01207 7.8691 0.9991 7.93422 0.9991 7.99999C0.9991 8.06576 1.01207 8.13088 1.03728 8.19162C1.06249 8.25237 1.09943 8.30754 1.14599 8.35399L5.14599 12.354C5.19248 12.4005 5.24767 12.4374 5.30841 12.4625C5.36915 12.4877 5.43425 12.5006 5.49999 12.5006C5.56574 12.5006 5.63084 12.4877 5.69158 12.4625C5.75232 12.4374 5.80751 12.4005 5.85399 12.354C5.90048 12.3075 5.93736 12.2523 5.96252 12.1916C5.98768 12.1308 6.00063 12.0657 6.00063 12C6.00063 11.9342 5.98768 11.8691 5.96252 11.8084C5.93736 11.7477 5.90048 11.6925 5.85399 11.646L2.70699 8.49999H14.5C14.6326 8.49999 14.7598 8.44731 14.8535 8.35354C14.9473 8.25978 15 8.1326 15 7.99999Z" fill="white"/>
</svg>
